<svg xmlns="http://www.w3.org/2000/svg" width="113" height="112" preserveAspectRatio="xMidYMid meet" version="1.0" viewBox="0 0 1130 1120"><g id="layer101" fill="#010101" stroke="none"><path d="M0 560 l0 -560 565 0 565 0 0 560 0 560 -565 0 -565 0 0 -560z"/></g><g id="layer102" fill="#303030" stroke="none"><path d="M47 1074 c-14 -14 -7 -26 13 -21 26 7 25 0 -2 -22 -29 -24 -18 -54 19 -49 14 2 29 9 31 17 3 10 -1 12 -19 8 l-24 -6 24 18 c30 23 25 55 -9 59 -14 2 -29 0 -33 -4z"/><path d="M124 1067 c-3 -8 -4 -30 -2 -49 3 -29 6 -33 33 -33 29 0 30 2 30 45 0 42 -2 45 -28 48 -17 2 -29 -2 -33 -11z m33 -54 c-3 -10 -5 -2 -5 17 0 19 2 27 5 18 2 -10 2 -26 0 -35z"/><path d="M237 1074 c-14 -14 -7 -26 13 -21 26 7 25 0 -2 -22 -29 -24 -18 -54 19 -49 14 2 29 9 31 17 3 10 -1 12 -19 8 l-24 -6 24 18 c30 23 25 55 -9 59 -14 2 -29 0 -33 -4z"/><path d="M310 1030 c0 -49 1 -50 30 -50 17 0 30 5 30 12 0 9 3 9 12 0 17 -17 58 -15 65 3 8 22 -4 30 -22 15 -13 -11 -15 -8 -14 21 0 19 3 28 6 22 7 -20 35 -16 31 5 -4 21 -44 28 -64 12 -10 -9 -14 -9 -14 -1 0 6 -13 11 -30 11 -29 0 -30 -1 -30 -50z m37 -17 c-4 -17 -4 -17 -12 0 -4 9 -4 25 0 35 8 16 8 16 12 0 3 -10 3 -26 0 -35z"/><path d="M460 1030 c0 -38 4 -50 15 -50 10 0 15 11 16 38 l1 37 10 -37 c14 -55 44 -52 56 5 l10 42 1 -42 c1 -31 5 -43 16 -43 11 0 15 11 15 40 0 29 4 40 15 40 8 0 15 5 15 10 0 15 -87 12 -94 -2 -5 -10 -7 -10 -12 0 -3 6 -19 12 -35 12 -28 0 -29 -1 -29 -50z"/><path d="M307 933 c-4 -3 -7 -22 -7 -41 l0 -35 -24 23 c-26 23 -56 22 -56 -3 0 -7 18 -31 40 -52 33 -32 40 -46 40 -78 l0 -38 -35 26 c-42 32 -55 26 -55 -26 l0 -40 -27 14 c-19 10 -31 29 -42 68 -11 36 -23 55 -35 57 -28 6 -38 -11 -27 -41 12 -31 9 -33 -23 -12 -13 9 -31 13 -40 9 -26 -10 -18 -38 16 -59 l33 -19 -33 -8 c-23 -6 -32 -14 -32 -29 0 -29 23 -33 78 -15 46 16 51 16 80 -1 l30 -17 -40 -18 c-46 -20 -46 -37 0 -57 40 -18 40 -25 2 -41 -23 -9 -40 -10 -79 0 -55 13 -71 8 -71 -20 0 -13 9 -22 26 -26 l26 -7 -28 -22 c-49 -39 -12 -74 42 -38 l26 16 -7 -36 c-6 -29 -4 -38 9 -43 25 -10 43 12 50 61 5 31 15 51 34 66 l27 21 3 -39 c5 -53 16 -61 52 -35 38 29 40 28 40 -11 0 -25 -9 -42 -40 -72 -22 -21 -40 -45 -40 -52 0 -25 30 -26 55 -3 l24 22 3 -38 c2 -32 7 -40 26 -42 20 -3 22 1 22 39 l0 42 24 -23 c26 -23 56 -22 56 3 0 7 -18 31 -40 52 -31 30 -40 47 -40 72 0 39 2 40 39 12 37 -27 51 -18 51 32 l0 40 30 -17 c23 -14 32 -29 41 -72 11 -56 29 -73 54 -52 10 8 13 21 8 38 -5 22 -4 24 13 17 39 -16 61 -17 67 -2 7 18 -2 31 -33 47 l-25 14 33 8 c22 6 32 15 32 28 0 28 -12 31 -74 19 -43 -9 -62 -9 -86 1 -39 16 -38 23 5 39 45 16 44 36 -1 59 l-36 18 28 19 c25 16 34 17 87 6 43 -9 63 -9 71 -1 15 15 -5 44 -34 48 -21 4 -21 5 9 23 35 21 38 31 15 50 -14 11 -21 10 -46 -4 l-31 -18 6 30 c4 19 1 33 -8 41 -25 21 -41 4 -54 -54 -10 -46 -18 -59 -42 -71 l-29 -16 0 40 c0 22 -4 43 -10 46 -5 3 -26 -6 -45 -21 l-35 -26 0 39 c0 32 7 46 40 78 22 21 40 45 40 52 0 25 -30 26 -56 3 l-24 -23 0 41 c0 34 -3 42 -18 42 -10 0 -22 -3 -25 -7z m-7 -283 c0 -6 11 -10 25 -10 14 0 25 4 25 10 0 5 10 14 21 21 21 11 22 10 16 -20 -7 -34 9 -72 28 -65 6 3 19 -2 30 -10 18 -13 17 -14 -13 -21 -38 -8 -52 -30 -45 -68 6 -31 -9 -36 -29 -9 -7 9 -22 17 -33 17 -11 0 -26 -8 -33 -17 -20 -27 -35 -22 -29 9 7 38 -7 60 -44 68 -34 8 -28 21 13 29 23 4 27 1 30 -21 4 -34 48 -67 77 -58 50 15 67 70 34 107 -19 21 -70 24 -92 4 -14 -13 -16 -10 -18 25 -2 37 -1 39 17 29 11 -6 20 -15 20 -20z"/></g><g id="layer103" fill="#515151" stroke="none"><path d="M49 1064 c-13 -16 -11 -17 16 -10 l30 7 -27 -26 c-33 -30 -28 -58 10 -53 14 2 27 9 30 17 3 9 -2 11 -19 7 l-24 -7 23 20 c13 11 22 28 20 38 -4 24 -41 28 -59 7z"/><path d="M124 1066 c-3 -8 -4 -29 -2 -48 2 -28 7 -34 30 -36 22 -3 29 2 34 22 11 44 -3 76 -32 76 -13 0 -27 -6 -30 -14z m33 -53 c-4 -17 -4 -17 -12 0 -4 9 -4 25 0 35 8 16 8 16 12 0 3 -10 3 -26 0 -35z"/><path d="M237 1073 c-14 -13 -6 -25 13 -20 26 7 25 0 -2 -22 -29 -24 -18 -54 19 -49 14 2 29 9 31 17 3 10 -1 12 -18 8 l-22 -6 22 24 c13 14 20 31 17 39 -6 16 -48 22 -60 9z"/><path d="M314 1066 c-3 -8 -4 -29 -2 -48 2 -28 7 -33 28 -33 23 0 25 4 28 48 3 45 2 47 -23 47 -14 0 -28 -6 -31 -14z m36 -36 c0 -16 -4 -30 -10 -30 -5 0 -10 14 -10 30 0 17 5 30 10 30 6 0 10 -13 10 -30z"/><path d="M384 1055 c-11 -43 3 -75 32 -75 13 0 27 7 31 15 8 22 -4 30 -22 15 -13 -11 -15 -8 -15 20 0 28 2 31 15 20 18 -15 30 -7 22 15 -4 8 -18 15 -31 15 -19 0 -27 -7 -32 -25z"/><path d="M493 1066 c3 -8 9 -31 13 -51 9 -50 35 -43 50 15 13 49 17 46 14 -12 -1 -29 2 -38 14 -38 12 0 16 10 16 40 0 29 4 40 15 40 8 0 15 5 15 10 0 15 -87 12 -93 -2 -4 -10 -7 -10 -18 0 -18 16 -32 15 -26 -2z"/><path d="M307 934 c-4 -4 -7 -23 -7 -42 l0 -35 -24 23 c-26 23 -56 22 -56 -3 0 -7 18 -31 40 -52 33 -32 40 -46 40 -78 l0 -38 -29 20 c-16 12 -37 21 -46 21 -15 0 -17 -7 -13 -45 l6 -45 -31 18 c-24 13 -35 31 -48 72 -11 36 -23 56 -34 58 -24 5 -35 -16 -24 -45 10 -27 7 -28 -31 -8 -27 14 -30 14 -40 -5 -9 -18 -7 -23 19 -38 17 -9 31 -19 31 -22 0 -3 -13 -11 -30 -17 -29 -11 -40 -36 -20 -48 5 -3 34 1 64 10 51 15 57 15 88 -1 l33 -17 -43 -18 c-23 -10 -42 -23 -42 -28 0 -6 16 -18 35 -27 42 -19 43 -26 9 -44 -20 -11 -36 -12 -81 -2 -45 9 -59 9 -65 -1 -15 -23 -8 -38 23 -44 l30 -6 -27 -18 c-55 -36 -32 -74 27 -44 l32 17 -6 -30 c-4 -21 -1 -34 10 -43 21 -18 40 9 49 67 6 45 15 57 49 68 19 5 20 2 17 -33 -5 -51 11 -59 53 -26 l35 26 0 -38 c0 -32 -7 -46 -40 -78 -22 -21 -40 -45 -40 -52 0 -25 30 -26 55 -3 l24 22 3 -38 c2 -31 7 -39 23 -39 16 0 21 8 23 39 l3 38 24 -22 c25 -23 55 -22 55 3 0 7 -18 31 -40 52 -33 32 -40 46 -40 78 l0 38 35 -26 c42 -33 58 -25 53 26 -2 22 -2 39 0 39 2 0 16 -7 32 -15 21 -11 32 -27 40 -58 20 -75 21 -78 38 -75 12 3 17 14 17 41 0 20 1 37 3 37 1 0 14 -7 27 -16 50 -33 76 9 28 45 -26 19 -26 20 -7 21 32 0 51 27 33 45 -12 11 -23 12 -69 1 -47 -11 -58 -10 -82 3 -15 9 -28 19 -28 22 0 3 16 13 35 22 19 9 35 21 35 27 0 6 -18 19 -41 28 l-41 18 35 19 c32 17 41 17 91 6 31 -7 60 -10 66 -6 20 12 9 36 -22 50 l-33 13 28 13 c29 13 37 46 12 55 -8 3 -24 -1 -37 -10 -31 -22 -33 -21 -33 21 0 26 -5 38 -14 38 -17 0 -26 -16 -43 -75 -9 -31 -22 -49 -44 -62 l-32 -18 6 45 c4 38 2 45 -13 45 -9 0 -30 -9 -46 -21 l-29 -20 0 38 c0 32 7 46 40 78 22 21 40 45 40 52 0 25 -30 26 -55 3 l-24 -22 -3 38 c-3 37 -23 56 -41 38z m-10 -280 c3 -8 15 -14 28 -14 13 0 25 6 28 14 3 8 15 19 25 25 18 10 19 8 13 -22 -10 -44 -5 -55 36 -72 37 -15 37 -35 0 -35 -32 0 -48 -31 -37 -69 10 -36 1 -40 -25 -11 -17 19 -65 28 -65 12 0 -4 -10 -13 -21 -20 -21 -13 -21 -12 -16 20 6 39 -7 68 -31 68 -9 0 -24 4 -31 9 -12 8 -9 12 15 23 42 19 52 36 44 74 -7 31 -6 33 12 23 10 -6 22 -17 25 -25z"/><path d="M274 604 c-22 -33 -10 -72 28 -93 25 -14 29 -14 55 5 34 25 40 57 19 90 -23 35 -79 34 -102 -2z"/></g><g id="layer104" fill="#727272" stroke="none"><path d="M57 1073 c-15 -14 -6 -24 16 -18 l22 6 -23 -20 c-29 -25 -25 -56 6 -56 12 0 22 5 21 10 0 6 -8 8 -17 7 -13 -3 -12 2 7 22 14 14 21 31 18 40 -6 16 -38 22 -50 9z"/><path d="M127 1073 c-4 -3 -7 -24 -7 -45 0 -42 20 -59 49 -41 34 22 25 93 -13 93 -12 0 -26 -3 -29 -7z m33 -43 c0 -16 -4 -30 -10 -30 -5 0 -10 14 -10 30 0 17 5 30 10 30 6 0 10 -13 10 -30z"/><path d="M240 1064 c0 -11 6 -14 23 -9 21 7 20 5 -5 -19 -17 -16 -25 -32 -21 -42 6 -17 44 -15 50 3 3 7 -4 10 -19 6 -21 -5 -21 -3 6 19 20 17 27 30 23 41 -8 22 -57 23 -57 1z"/><path d="M385 1051 c-8 -36 9 -71 35 -71 24 0 36 18 21 33 -8 8 -11 8 -11 -1 0 -7 -4 -12 -10 -12 -5 0 -10 14 -10 30 0 30 14 41 23 18 2 -7 8 -10 12 -6 14 13 -4 38 -29 38 -19 0 -26 -7 -31 -29z"/><path d="M500 1062 c0 -40 13 -82 26 -82 17 0 22 9 30 61 7 40 6 43 -9 30 -14 -11 -20 -11 -32 -1 -12 10 -15 9 -15 -8z m40 -26 c0 -3 -4 -8 -10 -11 -5 -3 -10 -1 -10 4 0 6 5 11 10 11 6 0 10 -2 10 -4z"/><path d="M571 1030 c-1 -39 2 -50 14 -50 11 0 15 11 15 36 0 23 6 42 18 50 15 12 14 13 -14 14 -30 0 -31 -1 -33 -50z"/><path d="M307 934 c-4 -4 -7 -23 -7 -42 l0 -35 -24 23 c-25 23 -56 22 -56 -2 0 -7 18 -31 41 -54 35 -36 40 -46 37 -79 l-3 -37 -27 21 c-14 12 -34 21 -43 21 -15 0 -16 -7 -10 -46 l7 -47 -32 19 c-22 13 -38 36 -53 74 -14 35 -29 56 -41 58 -17 4 -18 -1 -13 -37 5 -40 5 -40 -16 -26 -28 19 -53 19 -61 -1 -4 -10 4 -21 24 -32 37 -21 37 -25 0 -39 -32 -12 -40 -37 -15 -46 8 -4 35 1 61 10 43 14 49 14 83 -2 l36 -17 -37 -19 c-53 -27 -54 -36 -8 -56 22 -10 40 -20 40 -23 0 -3 -13 -12 -29 -21 -25 -15 -36 -15 -84 -4 -40 9 -58 10 -66 2 -18 -18 -13 -27 21 -41 l32 -14 -32 -16 c-28 -14 -31 -20 -22 -36 13 -24 20 -25 46 -5 29 22 37 18 31 -14 -4 -20 -1 -33 9 -42 21 -17 33 -2 47 62 10 44 18 56 45 72 l34 20 -7 -45 c-9 -58 5 -67 50 -32 l35 26 0 -39 c0 -32 -7 -46 -40 -78 -22 -21 -40 -45 -40 -52 0 -25 30 -26 55 -3 l24 22 3 -38 c2 -31 7 -39 23 -39 16 0 21 8 23 39 l3 38 24 -22 c25 -23 55 -22 55 3 0 7 -18 31 -40 52 -33 32 -40 46 -40 77 l0 39 37 -25 c20 -14 41 -22 46 -19 5 3 7 25 3 50 l-6 43 39 -22 c34 -20 40 -28 45 -70 5 -33 13 -51 26 -58 25 -13 36 6 26 45 -7 29 1 31 32 9 25 -17 52 -13 52 10 0 8 -15 23 -32 35 -27 17 -29 21 -12 21 11 0 29 6 39 14 16 11 17 17 7 29 -11 13 -20 13 -73 1 -58 -13 -62 -13 -91 7 l-30 21 41 19 c23 10 41 23 41 28 0 6 -19 19 -42 29 l-43 19 41 21 c39 20 44 20 90 6 41 -12 50 -12 62 0 17 17 8 36 -18 36 -30 0 -32 16 -5 34 47 31 26 67 -24 41 -39 -20 -38 -20 -33 19 2 19 -1 37 -7 41 -20 12 -39 -14 -46 -65 -6 -42 -12 -52 -41 -70 -20 -11 -37 -20 -38 -20 -2 0 -1 20 2 45 4 38 2 45 -13 45 -9 0 -29 -9 -43 -21 l-27 -21 -3 37 c-3 33 2 43 39 81 27 27 40 48 36 58 -9 22 -30 20 -53 -5 l-19 -21 -5 38 c-5 37 -26 55 -43 38z m-23 -263 c27 -30 58 -30 83 -1 26 30 39 21 25 -18 -13 -37 0 -59 39 -67 35 -8 34 -28 -1 -33 -32 -5 -51 -31 -39 -54 12 -22 11 -48 -1 -48 -5 0 -19 9 -30 20 -25 25 -45 25 -72 0 -31 -28 -37 -25 -28 15 9 40 -3 60 -42 69 -35 8 -36 22 -1 31 38 9 52 32 43 72 -9 37 -1 42 24 14z"/><path d="M287 618 c-45 -35 -19 -110 38 -110 32 0 65 32 65 63 0 45 -66 75 -103 47z m56 -35 c-7 -2 -21 -2 -30 0 -10 3 -4 5 12 5 17 0 24 -2 18 -5z"/></g><g id="layer105" fill="#9291b8" stroke="none"><path d="M281 603 c-34 -43 -10 -93 45 -93 56 0 83 61 44 100 -28 28 -64 25 -89 -7z m62 -20 c-7 -2 -21 -2 -30 0 -10 3 -4 5 12 5 17 0 24 -2 18 -5z"/></g><g id="layer106" fill="#b2b2b2" stroke="none"><path d="M57 1073 c-15 -14 -6 -24 16 -17 l22 6 -24 -25 c-14 -16 -21 -32 -17 -42 7 -19 37 -17 44 3 2 7 -2 10 -12 6 -23 -9 -20 5 6 25 13 11 19 24 15 34 -6 17 -38 23 -50 10z"/><path d="M132 1068 c-30 -30 -3 -98 33 -84 12 4 15 17 13 48 -3 45 -22 60 -46 36z m38 -38 c0 -20 -5 -30 -15 -30 -10 0 -15 10 -15 30 0 20 5 30 15 30 10 0 15 -10 15 -30z"/><path d="M247 1073 c-13 -13 -7 -25 7 -14 9 8 16 8 20 2 4 -5 -3 -16 -15 -24 -25 -18 -22 -52 5 -52 11 0 21 5 23 12 3 7 -4 10 -19 6 -22 -4 -22 -3 4 17 23 18 26 25 18 41 -11 19 -31 25 -43 12z"/><path d="M314 1067 c-3 -8 -4 -30 -2 -49 2 -28 7 -33 28 -33 23 0 25 4 25 45 0 39 -3 45 -23 48 -13 2 -24 -3 -28 -11z m36 -37 c0 -16 -4 -30 -10 -30 -5 0 -10 14 -10 30 0 17 5 30 10 30 6 0 10 -13 10 -30z"/><path d="M397 1073 c-4 -3 -7 -24 -7 -45 0 -45 22 -60 48 -34 16 16 15 16 -8 14 -21 -3 -26 2 -28 25 -2 19 1 27 12 27 8 0 16 -6 19 -12 2 -7 8 -10 12 -6 4 4 2 14 -5 23 -13 16 -32 20 -43 8z"/><path d="M460 1030 c0 -27 5 -50 10 -50 6 0 10 23 10 50 0 28 -4 50 -10 50 -5 0 -10 -22 -10 -50z"/><path d="M504 1040 c8 -50 21 -69 35 -54 6 5 13 29 17 54 7 41 6 44 -9 31 -14 -11 -20 -11 -34 0 -15 13 -16 10 -9 -31z m36 -4 c0 -3 -4 -8 -10 -11 -5 -3 -10 -1 -10 4 0 6 5 11 10 11 6 0 10 -2 10 -4z"/><path d="M307 934 c-4 -4 -7 -23 -7 -42 l0 -35 -25 23 c-23 22 -27 23 -41 8 -15 -15 -13 -20 25 -61 33 -35 41 -52 41 -81 l0 -38 -35 22 c-45 28 -57 20 -49 -32 4 -23 3 -39 -2 -37 -54 26 -63 34 -73 73 -13 52 -34 82 -50 71 -9 -5 -11 -19 -6 -42 6 -35 6 -35 -17 -19 -31 22 -58 21 -58 -4 0 -12 12 -26 33 -36 l32 -17 -34 -12 c-19 -6 -36 -16 -38 -22 -7 -21 19 -25 77 -13 51 11 60 10 85 -6 l27 -18 -36 -18 c-20 -10 -36 -23 -36 -28 0 -6 16 -18 35 -27 19 -9 35 -19 35 -22 0 -3 -14 -14 -31 -23 -25 -15 -38 -16 -80 -7 -27 6 -56 8 -64 5 -25 -9 -17 -26 17 -38 l31 -11 -26 -19 c-52 -38 -26 -63 33 -33 l28 14 -5 -39 c-5 -35 -3 -40 14 -40 15 0 22 12 34 57 12 47 21 61 48 77 l34 20 -6 -43 c-7 -52 9 -62 53 -31 l30 21 0 -37 c0 -29 -8 -46 -41 -81 -38 -41 -40 -46 -25 -61 14 -15 18 -14 40 7 l25 23 3 -38 c2 -31 7 -39 23 -39 16 0 21 8 25 39 l5 38 19 -21 c23 -25 44 -27 53 -5 4 10 -9 31 -36 58 -37 38 -42 48 -39 81 l3 37 27 -21 c14 -12 34 -21 43 -21 15 0 16 7 10 46 l-7 46 40 -22 c36 -21 41 -28 47 -72 5 -33 13 -52 26 -59 24 -12 34 8 25 46 -7 29 -5 30 35 10 16 -9 34 -13 39 -10 20 12 9 35 -22 51 l-33 17 34 12 c19 6 37 17 39 23 6 20 -24 24 -80 13 -45 -10 -57 -9 -85 6 -18 10 -33 21 -33 24 0 4 16 13 35 19 45 15 44 35 -1 58 l-37 19 37 22 c31 20 41 21 68 12 36 -13 85 -14 92 -3 8 14 -8 29 -38 36 l-29 7 31 19 c18 11 32 27 32 35 0 20 -34 19 -66 -1 l-25 -17 7 42 c6 37 5 41 -14 41 -16 0 -24 -10 -31 -37 -6 -21 -11 -45 -11 -55 0 -13 -58 -58 -76 -58 -3 0 -2 20 2 45 7 52 -6 59 -49 25 -34 -27 -37 -26 -37 18 0 31 7 45 40 77 22 21 40 45 40 51 0 24 -22 26 -50 5 l-29 -21 -3 38 c-3 35 -23 53 -41 36z m-19 -264 c12 -11 30 -20 40 -20 10 0 27 9 37 20 10 11 22 20 27 20 11 0 10 -47 -2 -55 -14 -8 11 -45 30 -45 9 0 24 -6 35 -13 17 -13 16 -15 -13 -25 -18 -6 -32 -8 -32 -5 0 4 -6 -2 -14 -12 -10 -14 -11 -25 -4 -38 5 -10 8 -27 6 -39 -3 -19 -4 -19 -31 6 -35 33 -49 33 -84 0 -30 -28 -40 -19 -25 24 7 21 6 33 -5 48 -7 10 -16 18 -18 16 -3 -1 -17 1 -32 4 -25 7 -25 8 -8 20 11 8 26 14 35 14 22 0 39 31 29 55 -18 47 -6 58 29 25z"/><path d="M281 603 c-34 -43 -10 -93 45 -93 56 0 83 61 44 100 -28 28 -64 25 -89 -7z m69 -27 c0 -22 -24 -38 -38 -24 -20 20 -14 38 13 38 15 0 25 -6 25 -14z"/></g><g id="layer107" fill="#bdbdd7" stroke="none"><path d="M57 1073 c-14 -13 -6 -24 13 -18 27 8 26 -9 -2 -27 -15 -10 -19 -20 -15 -32 8 -20 38 -18 45 4 4 12 3 13 -10 3 -27 -23 -28 -1 -2 24 21 19 24 26 14 38 -13 16 -32 19 -43 8z"/><path d="M322 1068 c-30 -30 -3 -98 33 -84 12 4 15 17 13 48 -3 45 -22 60 -46 36z m35 -52 c-4 -9 -11 -16 -17 -16 -11 0 -14 53 -3 64 11 10 27 -30 20 -48z"/><path d="M397 1073 c-4 -3 -7 -24 -7 -45 0 -44 22 -60 48 -34 10 9 12 16 5 16 -7 0 -15 -5 -18 -10 -11 -17 -25 0 -25 30 0 30 14 47 25 30 3 -5 11 -10 17 -10 7 0 6 6 -2 15 -13 16 -32 19 -43 8z"/><path d="M500 1068 c0 -27 21 -88 31 -88 11 0 15 11 24 65 4 28 3 36 -4 25 -9 -12 -14 -13 -31 -2 -16 10 -20 10 -20 0z m40 -37 c0 -6 -4 -13 -10 -16 -5 -3 -10 1 -10 9 0 9 5 16 10 16 6 0 10 -4 10 -9z"/><path d="M305 930 c-4 -6 -6 -23 -5 -38 3 -43 1 -45 -24 -15 -21 24 -26 26 -40 14 -15 -13 -13 -18 23 -55 37 -38 49 -74 42 -129 -1 -4 -17 4 -36 19 -20 15 -39 24 -42 20 -4 -4 -6 -25 -4 -46 1 -22 0 -40 -4 -40 -21 0 -67 38 -71 60 -17 82 -62 120 -56 47 l3 -36 -28 14 c-38 20 -53 19 -53 -6 0 -13 10 -23 30 -30 38 -14 38 -22 -1 -40 -64 -29 -24 -51 47 -26 35 12 44 11 72 -2 17 -9 32 -19 32 -22 0 -4 -16 -14 -35 -23 -44 -21 -44 -32 0 -53 19 -9 35 -19 35 -23 0 -3 -14 -14 -30 -24 -27 -15 -37 -16 -86 -5 -39 9 -58 9 -65 2 -16 -16 -4 -30 33 -37 l33 -6 -33 -20 c-35 -21 -43 -50 -14 -50 10 0 27 7 38 15 30 23 35 18 28 -26 -6 -37 -5 -41 12 -37 14 2 23 18 32 59 13 55 17 60 75 87 5 2 7 -14 6 -36 -2 -23 0 -44 3 -48 4 -3 23 3 43 15 20 11 37 21 38 21 1 0 1 -18 0 -41 -1 -34 -8 -49 -43 -83 -37 -39 -39 -44 -24 -57 14 -12 19 -10 40 14 26 30 27 29 24 -19 -1 -18 4 -35 10 -39 19 -12 40 16 40 53 l0 36 29 -28 c28 -27 51 -28 51 -2 0 6 -18 30 -40 51 -33 32 -40 46 -40 77 0 21 2 38 5 38 3 0 19 -10 35 -22 36 -26 45 -19 41 32 -1 22 0 40 3 40 4 0 21 -10 40 -22 27 -18 36 -33 46 -76 9 -41 16 -52 28 -50 13 3 16 12 14 36 -4 36 7 40 43 16 25 -16 45 -12 45 9 0 7 -14 21 -31 31 -24 14 -28 21 -18 27 8 5 22 9 32 9 10 0 17 8 17 20 0 23 -13 25 -77 8 -39 -9 -50 -9 -79 7 -19 10 -34 21 -34 25 0 3 14 13 32 21 44 20 45 36 4 53 -20 8 -36 19 -36 24 0 4 16 16 35 25 28 14 44 15 78 7 23 -5 50 -10 60 -10 29 0 19 29 -15 43 l-33 13 30 15 c33 16 47 49 20 49 -9 0 -30 -7 -47 -16 l-30 -16 7 41 c6 36 5 41 -13 41 -15 0 -22 -11 -32 -47 -6 -27 -13 -53 -15 -59 -3 -10 -59 -44 -73 -44 -3 0 -2 20 1 45 8 53 -1 56 -50 19 l-33 -25 0 43 c0 38 5 49 40 83 22 21 40 45 40 51 0 26 -23 25 -51 -2 l-29 -28 0 35 c0 45 -28 76 -45 49z m-5 -271 c0 -19 45 -8 73 19 l30 27 -6 -45 c-7 -55 -2 -65 41 -75 17 -3 32 -10 32 -15 0 -4 -15 -13 -32 -20 -51 -21 -59 -29 -47 -52 6 -10 9 -28 7 -40 -3 -19 -4 -19 -31 6 -31 29 -62 34 -70 12 -3 -8 -16 -20 -28 -27 -22 -11 -22 -10 -16 33 6 43 1 62 -18 64 -22 3 -55 17 -55 24 0 7 42 22 56 20 13 -2 32 35 23 45 -5 5 -9 22 -9 37 0 28 0 28 25 12 14 -9 25 -20 25 -25z"/><path d="M292 614 c-42 -29 -18 -104 34 -104 54 0 77 67 34 102 -27 22 -39 22 -68 2z m58 -38 c0 -22 -24 -38 -38 -24 -20 20 -14 38 13 38 15 0 25 -6 25 -14z"/></g><g id="layer108" fill="#cfcfd0" stroke="none"><path d="M55 1069 c-4 -6 -4 -13 0 -17 4 -4 10 -1 12 6 6 17 23 15 23 -3 0 -8 -9 -19 -20 -25 -11 -6 -20 -17 -20 -26 0 -20 29 -30 43 -14 9 10 8 12 -5 7 -28 -10 -29 5 -2 30 21 19 24 26 14 38 -15 18 -36 19 -45 4z"/><path d="M129 1056 c-16 -33 2 -79 29 -74 25 5 25 91 0 96 -11 2 -22 -6 -29 -22z m39 -30 c-2 -15 -7 -28 -13 -29 -12 -2 -19 38 -10 60 9 25 27 1 23 -31z"/><path d="M247 1073 c-13 -12 -7 -25 6 -14 8 6 17 8 20 4 12 -12 7 -22 -13 -28 -24 -8 -27 -43 -4 -52 8 -3 20 -1 27 6 8 8 5 11 -14 11 l-24 1 27 22 c21 17 25 26 17 40 -10 17 -30 22 -42 10z"/><path d="M322 1068 c-30 -30 -3 -98 33 -84 12 4 15 17 13 48 -3 45 -22 60 -46 36z m38 -39 c0 -19 -5 -29 -15 -29 -15 0 -22 50 -9 63 12 12 24 -4 24 -34z"/><path d="M500 1068 c0 -25 21 -88 29 -88 5 0 14 20 20 44 13 54 14 66 1 46 -8 -12 -13 -13 -30 -2 -16 10 -20 10 -20 0z m40 -37 c0 -6 -4 -13 -10 -16 -5 -3 -10 1 -10 9 0 9 5 16 10 16 6 0 10 -4 10 -9z"/><path d="M574 1046 c-3 -19 -1 -43 5 -53 8 -15 10 -10 11 25 0 30 4 42 15 42 8 0 15 5 15 10 0 6 -9 10 -20 10 -14 0 -21 -9 -26 -34z"/><path d="M308 933 c0 -5 -2 -21 -4 -38 -1 -16 -2 -34 -3 -38 -1 -4 -13 3 -28 17 -21 19 -30 23 -40 14 -11 -9 -6 -19 28 -54 40 -41 47 -63 40 -127 -1 -4 -17 4 -36 19 -20 15 -39 24 -42 20 -4 -4 -6 -25 -4 -46 3 -45 1 -46 -39 -25 -18 9 -32 26 -35 43 -9 42 -34 92 -45 92 -17 0 -22 -24 -11 -53 12 -31 12 -32 -25 -12 -39 20 -54 19 -54 -6 0 -13 10 -23 30 -30 38 -14 38 -22 -1 -40 -64 -29 -25 -51 46 -26 36 12 44 11 78 -7 l39 -19 -41 -19 c-23 -10 -41 -23 -41 -28 0 -6 16 -18 35 -27 19 -9 35 -19 35 -23 0 -3 -14 -14 -30 -24 -27 -15 -37 -16 -86 -5 -39 9 -58 9 -65 2 -16 -16 -4 -30 33 -37 l33 -7 -33 -20 c-17 -12 -32 -27 -32 -35 0 -18 31 -18 56 1 30 23 35 18 28 -26 -6 -37 -5 -41 12 -37 14 2 23 18 32 59 13 55 17 60 75 87 5 2 7 -14 6 -36 -2 -23 0 -44 3 -48 4 -3 23 3 43 15 20 11 37 21 38 21 1 0 1 -18 0 -41 -1 -33 -9 -49 -38 -79 -24 -25 -35 -44 -32 -54 9 -23 23 -20 46 10 22 28 23 27 23 -23 0 -18 4 -35 9 -39 18 -11 39 18 39 54 l0 36 29 -28 c29 -28 51 -28 51 -2 0 8 -18 30 -40 50 -34 31 -40 42 -40 76 0 22 2 40 5 40 3 0 19 -10 35 -22 36 -26 45 -19 41 32 -1 22 0 40 3 40 4 0 21 -10 40 -22 27 -18 36 -33 46 -76 9 -41 16 -52 28 -50 13 3 16 12 14 36 -4 35 10 41 41 17 21 -15 47 -10 47 9 0 6 -14 20 -31 30 -24 14 -28 21 -18 27 8 5 22 9 32 9 10 0 17 8 17 20 0 23 -13 25 -77 8 -39 -9 -50 -9 -79 7 -19 10 -34 21 -34 25 0 3 14 13 32 21 44 20 45 36 4 53 -20 8 -36 19 -36 24 0 4 16 16 35 25 28 14 44 15 78 7 23 -5 50 -10 60 -10 29 0 19 29 -15 44 l-33 14 27 10 c32 13 44 30 29 45 -8 8 -21 6 -47 -6 l-36 -18 7 41 c6 35 5 40 -13 40 -15 0 -22 -11 -32 -47 -6 -27 -13 -53 -15 -59 -3 -10 -59 -44 -73 -44 -3 0 -2 20 1 45 8 53 -1 56 -50 19 l-33 -25 0 43 c0 38 5 49 40 83 22 21 40 45 40 51 0 26 -23 25 -51 -2 l-29 -28 0 35 c0 19 -5 40 -12 47 -14 14 -27 16 -30 5z m-8 -274 c0 -19 45 -8 73 19 l30 27 -6 -45 c-5 -39 2 -75 14 -70 9 4 59 -13 59 -20 0 -4 -15 -13 -32 -20 -51 -21 -59 -29 -47 -52 6 -10 9 -28 7 -40 -3 -19 -4 -19 -31 6 -32 30 -49 32 -67 10 -8 -8 -22 -20 -33 -26 -19 -10 -20 -8 -14 36 l7 46 -40 17 c-22 10 -40 21 -40 24 0 6 43 20 56 19 13 -2 32 35 23 45 -5 5 -9 22 -9 37 0 28 0 28 25 12 14 -9 25 -20 25 -25z"/><path d="M292 614 c-42 -29 -18 -104 34 -104 54 0 77 67 34 102 -27 22 -39 22 -68 2z m60 -22 c-1 -7 -4 -23 -6 -35 -3 -12 -5 -24 -5 -26 -1 -2 -8 3 -17 10 -18 15 -34 50 -28 61 7 12 59 2 56 -10z"/></g><g id="layer109" fill="#d5d5e2" stroke="none"><path d="M60 1070 c-8 -5 -11 -13 -6 -17 5 -4 11 -2 13 5 6 17 23 15 23 -3 0 -8 -9 -19 -20 -25 -11 -6 -20 -17 -20 -24 0 -19 31 -29 44 -15 8 9 7 10 -6 6 -28 -10 -29 8 -2 32 21 18 23 25 14 37 -14 16 -20 17 -40 4z"/><path d="M134 1067 c-3 -8 -4 -30 -2 -49 2 -25 8 -33 23 -33 17 0 20 7 20 45 0 35 -4 45 -18 48 -9 2 -20 -3 -23 -11z m34 -41 c-2 -15 -7 -28 -13 -29 -12 -2 -19 38 -10 60 9 25 27 1 23 -31z"/><path d="M247 1073 c-13 -13 -7 -25 7 -14 10 8 16 9 21 1 8 -13 -3 -30 -21 -30 -19 0 -18 -39 2 -47 8 -3 20 -1 27 6 8 8 5 11 -14 11 l-24 1 27 22 c21 17 25 26 17 40 -10 17 -30 22 -42 10z"/><path d="M322 1068 c-30 -30 -4 -96 32 -82 22 8 22 79 0 88 -20 8 -18 8 -32 -6z m33 -38 c0 -18 -6 -35 -12 -37 -9 -3 -13 8 -13 37 0 29 4 40 13 38 6 -3 12 -20 12 -38z"/><path d="M394 1067 c-3 -8 -4 -30 -2 -49 2 -25 8 -33 22 -33 11 0 22 7 24 15 4 12 3 13 -10 3 -19 -16 -28 -7 -28 27 0 34 9 43 28 27 13 -10 14 -9 10 3 -6 20 -37 25 -44 7z"/><path d="M473 1030 c0 -30 2 -43 4 -27 2 15 2 39 0 55 -2 15 -4 2 -4 -28z"/><path d="M500 1068 c0 -25 21 -88 29 -88 5 0 14 20 20 44 13 54 14 66 1 46 -8 -12 -13 -13 -30 -2 -16 10 -20 10 -20 0z m40 -43 c0 -8 -4 -15 -10 -15 -5 0 -10 7 -10 15 0 8 5 15 10 15 6 0 10 -7 10 -15z"/><path d="M574 1046 c-3 -19 -1 -43 5 -53 9 -15 10 -11 11 24 0 29 5 45 18 52 15 9 15 10 -5 11 -17 0 -23 -7 -29 -34z"/><path d="M310 895 c0 -50 -8 -55 -35 -25 -10 11 -24 20 -32 20 -24 0 -14 -25 27 -65 34 -34 40 -45 40 -82 0 -24 -3 -43 -6 -43 -3 0 -20 11 -38 25 -18 14 -36 25 -39 25 -4 0 -7 -20 -7 -45 0 -25 -2 -45 -5 -45 -4 0 -19 7 -35 15 -23 12 -33 28 -45 70 -17 58 -30 74 -47 57 -7 -7 -7 -20 0 -41 13 -36 13 -36 -24 -16 -16 8 -35 15 -41 15 -24 0 -13 -31 17 -48 37 -21 37 -27 0 -41 -17 -5 -30 -17 -30 -26 0 -14 7 -16 43 -10 23 4 50 12 60 17 13 7 24 5 35 -5 9 -8 26 -17 37 -21 16 -6 13 -10 -23 -28 -23 -12 -42 -26 -42 -30 0 -5 19 -17 42 -27 l43 -18 -35 -22 c-28 -17 -43 -20 -75 -14 -22 3 -51 7 -65 7 -38 1 -31 -26 9 -37 l35 -9 -32 -20 c-35 -22 -43 -48 -14 -48 9 0 26 7 36 15 31 23 37 18 30 -26 -6 -36 -5 -41 12 -37 13 2 22 19 32 59 13 55 16 58 75 87 4 2 7 -17 7 -42 0 -51 6 -55 43 -26 36 29 47 25 47 -18 0 -31 -7 -45 -40 -77 -41 -40 -51 -65 -27 -65 8 0 22 9 32 20 27 30 35 25 35 -25 0 -25 4 -45 9 -45 17 0 33 31 29 55 -7 33 5 39 27 15 10 -11 24 -20 32 -20 23 0 14 25 -21 59 -27 26 -35 43 -38 77 -4 50 1 53 42 22 36 -26 45 -19 41 32 -1 22 1 40 5 40 4 0 23 -10 41 -22 26 -19 35 -34 44 -76 8 -41 14 -52 27 -50 13 3 16 12 14 36 -4 35 7 40 41 17 15 -10 27 -11 37 -4 12 8 9 14 -20 39 l-35 29 33 7 c22 4 32 12 32 25 0 22 0 22 -73 8 -51 -11 -58 -10 -93 12 l-37 23 31 10 c31 11 59 32 51 40 -2 2 -22 12 -44 24 l-39 20 43 21 c39 20 47 21 97 10 30 -7 57 -9 60 -6 12 12 -5 37 -25 37 -30 0 -35 19 -8 29 31 12 43 29 28 44 -7 7 -18 7 -38 -3 -16 -8 -32 -16 -36 -18 -5 -2 -7 13 -5 34 2 29 -1 39 -12 42 -12 2 -20 -13 -30 -54 -12 -46 -21 -61 -45 -75 -44 -26 -48 -23 -43 26 6 52 -1 55 -49 19 l-33 -25 0 49 c0 42 4 52 35 82 36 35 45 60 22 60 -8 0 -22 -9 -32 -20 -26 -28 -35 -25 -29 10 6 29 -8 60 -27 60 -5 0 -9 -20 -9 -45z m24 -245 c9 0 16 4 16 9 0 5 12 16 26 26 l27 17 -5 -45 c-3 -25 -2 -51 3 -59 5 -7 9 -10 9 -6 0 10 60 -12 60 -22 0 -4 -15 -13 -32 -21 -43 -17 -49 -27 -41 -73 6 -37 5 -38 -16 -26 -12 6 -25 18 -28 26 -7 19 -37 18 -53 -2 -8 -8 -22 -20 -33 -26 -19 -10 -20 -8 -14 36 l7 46 -40 17 c-22 10 -40 21 -40 24 0 7 43 20 56 18 15 -2 23 29 17 71 l-6 45 36 -28 c19 -15 43 -27 51 -27z"/><path d="M292 614 c-43 -30 -18 -104 36 -104 50 0 72 75 30 104 -12 9 -27 16 -33 16 -6 0 -21 -7 -33 -16z m60 -22 c-1 -7 -4 -23 -6 -35 -3 -12 -5 -24 -5 -26 -1 -2 -8 3 -17 10 -19 15 -34 50 -27 62 8 13 58 3 55 -11z"/></g><g id="layer110" fill="#fcfcfc" stroke="none"><path d="M60 1070 c-8 -5 -11 -13 -6 -17 5 -4 11 -2 13 5 6 17 23 15 23 -3 0 -8 -9 -19 -20 -25 -24 -13 -26 -36 -4 -44 14 -5 15 -4 5 8 -10 11 -8 17 9 29 35 24 16 70 -20 47z"/><path d="M137 1073 c-10 -10 -8 -81 2 -87 5 -4 16 -3 25 0 22 8 22 80 0 88 -19 7 -19 7 -27 -1z m28 -43 c0 -18 -6 -35 -12 -37 -9 -3 -13 8 -13 37 0 29 4 40 13 38 6 -3 12 -20 12 -38z"/><path d="M253 1073 c-7 -2 -13 -10 -13 -16 0 -8 4 -7 12 1 16 16 28 15 28 -3 0 -8 -9 -19 -20 -25 -11 -6 -20 -18 -19 -28 0 -13 2 -14 6 -2 4 8 15 22 26 31 31 24 15 57 -20 42z"/><path d="M320 1061 c-14 -26 -13 -44 4 -66 12 -16 16 -17 30 -6 19 16 21 62 4 79 -17 17 -26 15 -38 -7z m35 -31 c0 -18 -6 -35 -12 -37 -9 -3 -13 8 -13 37 0 29 4 40 13 38 6 -3 12 -20 12 -38z"/><path d="M403 1073 c-19 -7 -17 -80 3 -87 19 -7 34 0 34 17 0 8 -3 7 -9 -2 -13 -20 -31 -4 -31 29 0 33 18 49 32 29 8 -12 9 -12 6 0 -5 17 -17 22 -35 14z"/><path d="M473 1035 c0 -27 2 -38 4 -22 2 15 2 37 0 50 -2 12 -4 0 -4 -28z"/><path d="M500 1075 c0 -23 22 -85 30 -85 9 0 13 12 24 65 5 22 4 26 -4 15 -5 -8 -10 -25 -10 -37 0 -13 -4 -23 -10 -23 -5 0 -10 10 -10 23 0 12 -5 29 -10 37 -5 8 -10 11 -10 5z"/><path d="M574 1044 c-4 -22 -2 -40 5 -47 8 -8 11 1 11 36 0 56 -7 61 -16 11z"/><path d="M603 1073 c4 -3 10 -3 14 0 3 4 0 7 -7 7 -7 0 -10 -3 -7 -7z"/><path d="M265 990 c-3 -6 1 -7 9 -4 18 7 21 14 7 14 -6 0 -13 -4 -16 -10z"/><path d="M310 896 c0 -51 -8 -56 -35 -26 -10 11 -24 20 -32 20 -24 0 -14 -25 27 -65 34 -34 40 -45 40 -82 0 -24 -3 -43 -7 -43 -3 0 -21 11 -39 25 -18 14 -36 25 -39 25 -4 0 -5 -20 -4 -45 3 -50 1 -52 -40 -30 -22 11 -34 28 -46 67 -21 63 -26 70 -44 59 -11 -7 -11 -15 -3 -40 12 -35 4 -39 -33 -15 -24 15 -45 12 -45 -7 0 -5 16 -19 37 -31 l36 -22 -34 -11 c-19 -7 -35 -19 -37 -28 -4 -21 9 -21 72 -2 46 14 51 14 83 -6 l34 -21 -40 -21 c-23 -11 -41 -25 -41 -30 0 -5 18 -16 40 -24 22 -9 40 -19 40 -23 0 -4 -18 -15 -39 -25 -35 -15 -46 -16 -91 -5 -39 9 -54 10 -63 1 -15 -15 7 -31 41 -31 31 0 28 -17 -8 -35 -16 -9 -30 -22 -30 -30 0 -19 18 -19 50 0 37 21 41 19 38 -22 -2 -28 1 -38 11 -38 14 0 18 11 35 85 5 23 50 60 73 60 4 0 7 -20 5 -45 -2 -25 0 -45 5 -45 5 0 25 11 44 25 l34 26 3 -42 c3 -37 -1 -46 -37 -83 -23 -23 -41 -47 -41 -54 0 -19 25 -14 45 8 27 30 35 25 35 -26 0 -59 24 -55 28 4 4 47 11 51 37 22 10 -11 24 -20 32 -20 24 0 14 25 -27 65 -33 32 -40 46 -40 77 0 43 12 48 50 18 36 -28 40 -25 40 25 0 25 3 45 8 45 4 0 21 -9 39 -19 25 -16 34 -30 44 -75 11 -50 25 -67 41 -50 3 3 2 21 -2 40 -4 18 -6 34 -4 34 2 0 19 -8 39 -17 26 -13 38 -14 47 -5 8 8 1 17 -27 33 -40 24 -40 25 18 43 9 3 17 13 17 22 0 13 -6 15 -32 9 -81 -17 -103 -16 -138 6 l-35 22 25 9 c69 27 73 38 19 64 l-42 20 39 23 c36 21 42 22 96 10 32 -6 61 -9 64 -6 13 13 -7 37 -31 37 -34 0 -32 15 5 37 17 9 30 21 30 25 0 17 -31 20 -55 4 -37 -24 -45 -20 -34 16 9 33 -1 56 -19 44 -6 -4 -16 -30 -22 -59 -11 -46 -18 -56 -51 -75 l-39 -23 0 51 c0 27 -3 50 -6 50 -3 0 -20 -11 -38 -25 -18 -14 -36 -25 -39 -25 -4 0 -7 19 -7 43 0 37 6 48 40 82 41 40 51 65 27 65 -8 0 -22 -9 -32 -20 -26 -29 -33 -25 -37 22 -4 59 -28 63 -28 4z m-10 -230 c17 -22 26 -20 66 11 l35 26 -2 -46 c-2 -26 -1 -48 2 -50 2 -1 22 -11 44 -21 l40 -18 -40 -16 c-51 -20 -54 -25 -45 -73 9 -46 2 -48 -41 -11 -18 15 -34 26 -36 25 -2 -2 -16 -14 -31 -28 -36 -34 -44 -32 -42 13 3 57 2 57 -35 72 -19 8 -35 17 -35 20 0 11 51 31 61 25 11 -7 12 5 9 63 -2 40 0 43 17 33 11 -5 25 -17 33 -25z"/><path d="M292 614 c-42 -29 -18 -104 35 -104 49 0 72 76 31 104 -12 9 -27 16 -33 16 -6 0 -21 -7 -33 -16z m66 -29 c0 -14 -4 -25 -9 -25 -5 0 -8 -5 -6 -12 1 -7 -7 -12 -18 -12 -11 0 -19 5 -17 12 1 7 -2 12 -8 12 -8 0 -8 23 -1 48 1 1 14 2 30 2 24 0 29 -4 29 -25z"/></g></svg>